<?xml version="1.0" encoding="iso-8859-1"?>
<!-- Uploaded to: SVG Repo, www.svgrepo.com, Generator: SVG Repo Mixer Tools -->
<svg fill="#000000" height="800px" width="800px" version="1.1" id="Layer_1" xmlns="http://www.w3.org/2000/svg" xmlns:xlink="http://www.w3.org/1999/xlink" 
	 viewBox="0 0 512 512" xml:space="preserve">
<g>
	<g>
		<path d="M99.251,384L17.548,489.047C10.284,498.388,16.941,512,28.775,512h142.208c17.555,0,34.128-8.105,44.905-21.962
			L298.362,384H99.251z"/>
	</g>
</g>
<g>
	<g>
		<path d="M497.473,256v-56.889c0-55.027-44.528-99.556-99.556-99.556h-97.651c25.196,25.673,40.762,60.828,40.762,99.556v142.222
			h156.444v-42.667H383.695V256H497.473z"/>
	</g>
</g>
<g>
	<g>
		<path d="M198.806,99.556c-55.027,0-99.556,44.528-99.556,99.556v142.222h199.111V199.111
			C298.362,144.084,253.833,99.556,198.806,99.556z"/>
	</g>
</g>
<g>
	<g>
		<path d="M298.362,0c-23.565,0-42.667,19.102-42.667,42.667c0,4.988,0.865,9.772,2.438,14.222h80.458
			c1.573-4.45,2.438-9.234,2.438-14.222C341.029,19.102,321.927,0,298.362,0z"/>
	</g>
</g>
</svg>